G04 start of page 7 for group -4079 idx -4079 *
G04 Title: (unknown), topsilk *
G04 Creator: pcb 20110918 *
G04 CreationDate: Wed 06 Feb 2013 04:46:39 AM GMT UTC *
G04 For: petersen *
G04 Format: Gerber/RS-274X *
G04 PCB-Dimensions: 50000 50000 *
G04 PCB-Coordinate-Origin: lower left *
%MOIN*%
%FSLAX25Y25*%
%LNTOPSILK*%
%ADD32C,0.0100*%
G54D32*X500Y49500D02*X49500D01*
Y500D01*
X500D01*
Y49500D01*
X14500Y45000D02*Y41000D01*
X16500D01*
X17700Y45000D02*X19700D01*
X18700D02*Y41000D01*
X21400D02*X22900D01*
X20900Y41500D02*X21400Y41000D01*
X20900Y44500D02*Y41500D01*
Y44500D02*X21400Y45000D01*
X22900D01*
X24100Y44500D02*X24600Y45000D01*
X26100D01*
X26600Y44500D01*
Y43500D01*
X24100Y41000D02*X26600Y43500D01*
X24100Y41000D02*X26600D01*
X27800D02*X29800Y43000D01*
Y44500D02*Y43000D01*
X29300Y45000D02*X29800Y44500D01*
X28300Y45000D02*X29300D01*
X27800Y44500D02*X28300Y45000D01*
X27800Y44500D02*Y43500D01*
X28300Y43000D01*
X29800D01*
X31000Y41000D02*X33000Y43000D01*
Y44500D02*Y43000D01*
X32500Y45000D02*X33000Y44500D01*
X31500Y45000D02*X32500D01*
X31000Y44500D02*X31500Y45000D01*
X31000Y44500D02*Y43500D01*
X31500Y43000D01*
X33000D01*
X34200Y41000D02*X36700Y43500D01*
Y45000D02*Y43500D01*
X34200Y45000D02*X36700D01*
X20000Y35000D02*Y34000D01*
X21000Y33000D01*
X22000Y34000D01*
Y35000D02*Y34000D01*
X23700Y33000D02*X24700D01*
X24200Y37000D02*Y33000D01*
X23200Y36000D02*X24200Y37000D01*
X25900Y33000D02*X26400D01*
X28100D02*X29100D01*
X28600Y37000D02*Y33000D01*
X27600Y36000D02*X28600Y37000D01*
X19094Y21063D02*X30906D01*
X19094Y28937D02*X30906D01*
X24607Y9745D02*X25393D01*
X24607Y15255D02*X25393D01*
M02*
