G04 start of page 9 for group -4078 idx -4078 *
G04 Title: (unknown), bottomsilk *
G04 Creator: pcb 20110918 *
G04 CreationDate: Mon 21 Apr 2014 03:44:01 AM GMT UTC *
G04 For: railfan *
G04 Format: Gerber/RS-274X *
G04 PCB-Dimensions: 50000 50000 *
G04 PCB-Coordinate-Origin: lower left *
%MOIN*%
%FSLAX25Y25*%
%LNBOTTOMSILK*%
%ADD34C,0.0100*%
G54D34*X32500Y29000D02*Y24500D01*
X30000D02*X35000D01*
X31000Y23000D02*X34000D01*
X32000Y21500D02*X33000D01*
X20000Y33000D02*Y37000D01*
X18500D02*X18000Y36500D01*
Y33500D02*Y36500D01*
X18500Y33000D02*X18000Y33500D01*
X18500Y33000D02*X20500D01*
X18500Y37000D02*X20500D01*
X14800Y35000D02*X16800D01*
X15800Y34000D02*Y36000D01*
X20000Y23000D02*Y27000D01*
X18500D02*X18000Y26500D01*
Y23500D02*Y26500D01*
X18500Y23000D02*X18000Y23500D01*
X18500Y23000D02*X20500D01*
X18500Y27000D02*X20500D01*
X14800Y25000D02*X16800D01*
X35500Y14000D02*Y17000D01*
Y14000D02*X34500Y13000D01*
X33500Y14000D01*
Y17000D01*
X30300Y13000D02*X31800D01*
X32300Y13500D02*X31800Y13000D01*
X32300Y13500D02*Y16500D01*
X31800Y17000D01*
X30300D02*X31800D01*
X27100Y13000D02*X28600D01*
X29100Y13500D02*X28600Y13000D01*
X29100Y13500D02*Y16500D01*
X28600Y17000D01*
X27100D02*X28600D01*
X35500Y34000D02*Y37000D01*
Y34000D02*X34500Y33000D01*
X33500Y34000D01*
Y37000D01*
X30300D02*X32300D01*
X30300D02*X29800Y36500D01*
Y35500D02*Y36500D01*
X30300Y35000D02*X29800Y35500D01*
X30300Y35000D02*X31800D01*
Y33000D02*Y37000D01*
Y35000D02*X29800Y33000D01*
X27100Y35000D02*X28600D01*
X26600Y33000D02*X28600D01*
Y37000D01*
X26600D02*X28600D01*
X25400Y33000D02*Y37000D01*
X23400D02*X25400D01*
X23900Y35000D02*X25400D01*
X23500Y14000D02*Y17000D01*
Y14000D02*X22500Y13000D01*
X21500Y14000D01*
Y17000D01*
X19800Y13000D02*Y17000D01*
X18300D02*X20300D01*
X18300D02*X17800Y16500D01*
Y15500D02*Y16500D01*
X18300Y15000D02*X17800Y15500D01*
X18300Y15000D02*X19800D01*
X14600Y17000D02*X16600D01*
X15600Y13000D02*Y17000D01*
M02*
