G04 start of page 12 for group -3984 idx -3984 *
G04 Title: (unknown), fab *
G04 Creator: pcb 20110918 *
G04 CreationDate: Mon 21 Apr 2014 03:44:01 AM GMT UTC *
G04 For: railfan *
G04 Format: Gerber/RS-274X *
G04 PCB-Dimensions: 50000 50000 *
G04 PCB-Coordinate-Origin: lower left *
%MOIN*%
%FSLAX25Y25*%
%LNFAB*%
%ADD43C,0.0100*%
%ADD42C,0.0060*%
%ADD41C,0.0001*%
%ADD40R,0.0080X0.0080*%
G54D40*X40000Y35000D02*Y33400D01*
G54D41*G36*
X39454Y35147D02*X41533Y36346D01*
X41933Y35653D01*
X39853Y34454D01*
X39454Y35147D01*
G37*
G36*
X40147Y34454D02*X38067Y35653D01*
X38467Y36346D01*
X40546Y35147D01*
X40147Y34454D01*
G37*
G54D40*X10000Y25000D02*Y23400D01*
G54D41*G36*
X9454Y25147D02*X11533Y26346D01*
X11933Y25653D01*
X9853Y24454D01*
X9454Y25147D01*
G37*
G36*
X10147Y24454D02*X8067Y25653D01*
X8467Y26346D01*
X10546Y25147D01*
X10147Y24454D01*
G37*
G54D40*X10000Y15000D02*Y13400D01*
G54D41*G36*
X9454Y15147D02*X11533Y16346D01*
X11933Y15653D01*
X9853Y14454D01*
X9454Y15147D01*
G37*
G36*
X10147Y14454D02*X8067Y15653D01*
X8467Y16346D01*
X10546Y15147D01*
X10147Y14454D01*
G37*
G54D40*X40000Y25000D02*Y23400D01*
G54D41*G36*
X39454Y25147D02*X41533Y26346D01*
X41933Y25653D01*
X39853Y24454D01*
X39454Y25147D01*
G37*
G36*
X40147Y24454D02*X38067Y25653D01*
X38467Y26346D01*
X40546Y25147D01*
X40147Y24454D01*
G37*
G54D40*X10000Y35000D02*Y33400D01*
G54D41*G36*
X9454Y35147D02*X11533Y36346D01*
X11933Y35653D01*
X9853Y34454D01*
X9454Y35147D01*
G37*
G36*
X10147Y34454D02*X8067Y35653D01*
X8467Y36346D01*
X10546Y35147D01*
X10147Y34454D01*
G37*
G54D40*X40000Y15000D02*Y13400D01*
G54D41*G36*
X39454Y15147D02*X41533Y16346D01*
X41933Y15653D01*
X39853Y14454D01*
X39454Y15147D01*
G37*
G36*
X40147Y14454D02*X38067Y15653D01*
X38467Y16346D01*
X40546Y15147D01*
X40147Y14454D01*
G37*
G54D40*X15000Y106250D02*Y104650D01*
G54D41*G36*
X14454Y106397D02*X16533Y107596D01*
X16933Y106903D01*
X14853Y105704D01*
X14454Y106397D01*
G37*
G36*
X15147Y105704D02*X13067Y106903D01*
X13467Y107596D01*
X15546Y106397D01*
X15147Y105704D01*
G37*
G54D42*X135000Y108500D02*Y107750D01*
X136500Y106250D01*
X138000Y107750D01*
Y108500D02*Y107750D01*
X136500Y106250D02*Y102500D01*
X139800Y105500D02*X142050D01*
X139800Y102500D02*X142800D01*
X139800Y108500D02*Y102500D01*
Y108500D02*X142800D01*
X147600D02*X148350Y107750D01*
X145350Y108500D02*X147600D01*
X144600Y107750D02*X145350Y108500D01*
X144600Y107750D02*Y106250D01*
X145350Y105500D01*
X147600D01*
X148350Y104750D01*
Y103250D01*
X147600Y102500D02*X148350Y103250D01*
X145350Y102500D02*X147600D01*
X144600Y103250D02*X145350Y102500D01*
X100250Y108500D02*X101000Y107750D01*
X98750Y108500D02*X100250D01*
X98000Y107750D02*X98750Y108500D01*
X98000Y107750D02*Y103250D01*
X98750Y102500D01*
X100250Y105500D02*X101000Y104750D01*
X98000Y105500D02*X100250D01*
X98750Y102500D02*X100250D01*
X101000Y103250D01*
Y104750D02*Y103250D01*
X45000D02*X45750Y102500D01*
X45000Y107750D02*Y103250D01*
Y107750D02*X45750Y108500D01*
X47250D01*
X48000Y107750D01*
Y103250D01*
X47250Y102500D02*X48000Y103250D01*
X45750Y102500D02*X47250D01*
X45000Y104000D02*X48000Y107000D01*
X49800Y102500D02*X50550D01*
X52350Y103250D02*X53100Y102500D01*
X52350Y107750D02*Y103250D01*
Y107750D02*X53100Y108500D01*
X54600D01*
X55350Y107750D01*
Y103250D01*
X54600Y102500D02*X55350Y103250D01*
X53100Y102500D02*X54600D01*
X52350Y104000D02*X55350Y107000D01*
X57150Y107750D02*X57900Y108500D01*
X59400D01*
X60150Y107750D01*
Y103250D01*
X59400Y102500D02*X60150Y103250D01*
X57900Y102500D02*X59400D01*
X57150Y103250D02*X57900Y102500D01*
Y105500D02*X60150D01*
X61950Y103250D02*X62700Y102500D01*
X61950Y104750D02*Y103250D01*
Y104750D02*X62700Y105500D01*
X64200D01*
X64950Y104750D01*
Y103250D01*
X64200Y102500D02*X64950Y103250D01*
X62700Y102500D02*X64200D01*
X61950Y106250D02*X62700Y105500D01*
X61950Y107750D02*Y106250D01*
Y107750D02*X62700Y108500D01*
X64200D01*
X64950Y107750D01*
Y106250D01*
X64200Y105500D02*X64950Y106250D01*
X3000Y123500D02*X3750Y122750D01*
X750Y123500D02*X3000D01*
X0Y122750D02*X750Y123500D01*
X0Y122750D02*Y121250D01*
X750Y120500D01*
X3000D01*
X3750Y119750D01*
Y118250D01*
X3000Y117500D02*X3750Y118250D01*
X750Y117500D02*X3000D01*
X0Y118250D02*X750Y117500D01*
X5550Y120500D02*Y118250D01*
X6300Y117500D01*
X8550Y120500D02*Y116000D01*
X7800Y115250D02*X8550Y116000D01*
X6300Y115250D02*X7800D01*
X5550Y116000D02*X6300Y115250D01*
Y117500D02*X7800D01*
X8550Y118250D01*
X11100Y119750D02*Y117500D01*
Y119750D02*X11850Y120500D01*
X12600D01*
X13350Y119750D01*
Y117500D01*
Y119750D02*X14100Y120500D01*
X14850D01*
X15600Y119750D01*
Y117500D01*
X10350Y120500D02*X11100Y119750D01*
X17400Y123500D02*Y117500D01*
Y118250D02*X18150Y117500D01*
X19650D01*
X20400Y118250D01*
Y119750D02*Y118250D01*
X19650Y120500D02*X20400Y119750D01*
X18150Y120500D02*X19650D01*
X17400Y119750D02*X18150Y120500D01*
X22200Y119750D02*Y118250D01*
Y119750D02*X22950Y120500D01*
X24450D01*
X25200Y119750D01*
Y118250D01*
X24450Y117500D02*X25200Y118250D01*
X22950Y117500D02*X24450D01*
X22200Y118250D02*X22950Y117500D01*
X27000Y123500D02*Y118250D01*
X27750Y117500D01*
X0Y114250D02*X29250D01*
X41750Y123500D02*Y117500D01*
X44000Y123500D02*X44750Y122750D01*
Y118250D01*
X44000Y117500D02*X44750Y118250D01*
X41000Y117500D02*X44000D01*
X41000Y123500D02*X44000D01*
X46550Y122000D02*Y121250D01*
Y119750D02*Y117500D01*
X50300Y120500D02*X51050Y119750D01*
X48800Y120500D02*X50300D01*
X48050Y119750D02*X48800Y120500D01*
X48050Y119750D02*Y118250D01*
X48800Y117500D01*
X51050Y120500D02*Y118250D01*
X51800Y117500D01*
X48800D02*X50300D01*
X51050Y118250D01*
X54350Y119750D02*Y117500D01*
Y119750D02*X55100Y120500D01*
X55850D01*
X56600Y119750D01*
Y117500D01*
Y119750D02*X57350Y120500D01*
X58100D01*
X58850Y119750D01*
Y117500D01*
X53600Y120500D02*X54350Y119750D01*
X60650Y117500D02*X61400D01*
X65900Y118250D02*X66650Y117500D01*
X65900Y122750D02*X66650Y123500D01*
X65900Y122750D02*Y118250D01*
X68450Y123500D02*X69950D01*
X69200D02*Y117500D01*
X68450D02*X69950D01*
X72500Y119750D02*Y117500D01*
Y119750D02*X73250Y120500D01*
X74000D01*
X74750Y119750D01*
Y117500D01*
X71750Y120500D02*X72500Y119750D01*
X77300Y120500D02*X79550D01*
X76550Y119750D02*X77300Y120500D01*
X76550Y119750D02*Y118250D01*
X77300Y117500D01*
X79550D01*
X81350Y123500D02*Y117500D01*
Y119750D02*X82100Y120500D01*
X83600D01*
X84350Y119750D01*
Y117500D01*
X86150Y123500D02*X86900Y122750D01*
Y118250D01*
X86150Y117500D02*X86900Y118250D01*
X41000Y114250D02*X88700D01*
X95750Y117500D02*X98000D01*
X95000Y118250D02*X95750Y117500D01*
X95000Y122750D02*Y118250D01*
Y122750D02*X95750Y123500D01*
X98000D01*
X99800Y119750D02*Y118250D01*
Y119750D02*X100550Y120500D01*
X102050D01*
X102800Y119750D01*
Y118250D01*
X102050Y117500D02*X102800Y118250D01*
X100550Y117500D02*X102050D01*
X99800Y118250D02*X100550Y117500D01*
X104600Y120500D02*Y118250D01*
X105350Y117500D01*
X106850D01*
X107600Y118250D01*
Y120500D02*Y118250D01*
X110150Y119750D02*Y117500D01*
Y119750D02*X110900Y120500D01*
X111650D01*
X112400Y119750D01*
Y117500D01*
X109400Y120500D02*X110150Y119750D01*
X114950Y123500D02*Y118250D01*
X115700Y117500D01*
X114200Y121250D02*X115700D01*
X95000Y114250D02*X117200D01*
X130750Y123500D02*Y117500D01*
X130000Y123500D02*X133000D01*
X133750Y122750D01*
Y121250D01*
X133000Y120500D02*X133750Y121250D01*
X130750Y120500D02*X133000D01*
X135550Y123500D02*Y118250D01*
X136300Y117500D01*
X140050Y120500D02*X140800Y119750D01*
X138550Y120500D02*X140050D01*
X137800Y119750D02*X138550Y120500D01*
X137800Y119750D02*Y118250D01*
X138550Y117500D01*
X140800Y120500D02*Y118250D01*
X141550Y117500D01*
X138550D02*X140050D01*
X140800Y118250D01*
X144100Y123500D02*Y118250D01*
X144850Y117500D01*
X143350Y121250D02*X144850D01*
X147100Y117500D02*X149350D01*
X146350Y118250D02*X147100Y117500D01*
X146350Y119750D02*Y118250D01*
Y119750D02*X147100Y120500D01*
X148600D01*
X149350Y119750D01*
X146350Y119000D02*X149350D01*
Y119750D02*Y119000D01*
X154150Y123500D02*Y117500D01*
X153400D02*X154150Y118250D01*
X151900Y117500D02*X153400D01*
X151150Y118250D02*X151900Y117500D01*
X151150Y119750D02*Y118250D01*
Y119750D02*X151900Y120500D01*
X153400D01*
X154150Y119750D01*
X157450Y120500D02*Y119750D01*
Y118250D02*Y117500D01*
X155950Y122750D02*Y122000D01*
Y122750D02*X156700Y123500D01*
X158200D01*
X158950Y122750D01*
Y122000D01*
X157450Y120500D02*X158950Y122000D01*
X130000Y114250D02*X160750D01*
X0Y138500D02*X3000D01*
X1500D02*Y132500D01*
X4800Y138500D02*Y132500D01*
Y134750D02*X5550Y135500D01*
X7050D01*
X7800Y134750D01*
Y132500D01*
X10350D02*X12600D01*
X9600Y133250D02*X10350Y132500D01*
X9600Y134750D02*Y133250D01*
Y134750D02*X10350Y135500D01*
X11850D01*
X12600Y134750D01*
X9600Y134000D02*X12600D01*
Y134750D02*Y134000D01*
X15150Y134750D02*Y132500D01*
Y134750D02*X15900Y135500D01*
X17400D01*
X14400D02*X15150Y134750D01*
X19950Y132500D02*X22200D01*
X19200Y133250D02*X19950Y132500D01*
X19200Y134750D02*Y133250D01*
Y134750D02*X19950Y135500D01*
X21450D01*
X22200Y134750D01*
X19200Y134000D02*X22200D01*
Y134750D02*Y134000D01*
X28950Y135500D02*X29700Y134750D01*
X27450Y135500D02*X28950D01*
X26700Y134750D02*X27450Y135500D01*
X26700Y134750D02*Y133250D01*
X27450Y132500D01*
X29700Y135500D02*Y133250D01*
X30450Y132500D01*
X27450D02*X28950D01*
X29700Y133250D01*
X33000Y134750D02*Y132500D01*
Y134750D02*X33750Y135500D01*
X35250D01*
X32250D02*X33000Y134750D01*
X37800Y132500D02*X40050D01*
X37050Y133250D02*X37800Y132500D01*
X37050Y134750D02*Y133250D01*
Y134750D02*X37800Y135500D01*
X39300D01*
X40050Y134750D01*
X37050Y134000D02*X40050D01*
Y134750D02*Y134000D01*
X45300Y132500D02*X46800D01*
X46050Y138500D02*Y132500D01*
X44550Y137000D02*X46050Y138500D01*
X54300D02*Y132500D01*
X53550D02*X54300Y133250D01*
X52050Y132500D02*X53550D01*
X51300Y133250D02*X52050Y132500D01*
X51300Y134750D02*Y133250D01*
Y134750D02*X52050Y135500D01*
X53550D01*
X54300Y134750D01*
X56100Y137000D02*Y136250D01*
Y134750D02*Y132500D01*
X58350Y137750D02*Y132500D01*
Y137750D02*X59100Y138500D01*
X59850D01*
X57600Y135500D02*X59100D01*
X62100Y137750D02*Y132500D01*
Y137750D02*X62850Y138500D01*
X63600D01*
X61350Y135500D02*X62850D01*
X65850Y132500D02*X68100D01*
X65100Y133250D02*X65850Y132500D01*
X65100Y134750D02*Y133250D01*
Y134750D02*X65850Y135500D01*
X67350D01*
X68100Y134750D01*
X65100Y134000D02*X68100D01*
Y134750D02*Y134000D01*
X70650Y134750D02*Y132500D01*
Y134750D02*X71400Y135500D01*
X72900D01*
X69900D02*X70650Y134750D01*
X75450Y132500D02*X77700D01*
X74700Y133250D02*X75450Y132500D01*
X74700Y134750D02*Y133250D01*
Y134750D02*X75450Y135500D01*
X76950D01*
X77700Y134750D01*
X74700Y134000D02*X77700D01*
Y134750D02*Y134000D01*
X80250Y134750D02*Y132500D01*
Y134750D02*X81000Y135500D01*
X81750D01*
X82500Y134750D01*
Y132500D01*
X79500Y135500D02*X80250Y134750D01*
X85050Y138500D02*Y133250D01*
X85800Y132500D01*
X84300Y136250D02*X85800D01*
X93000Y138500D02*Y132500D01*
X92250D02*X93000Y133250D01*
X90750Y132500D02*X92250D01*
X90000Y133250D02*X90750Y132500D01*
X90000Y134750D02*Y133250D01*
Y134750D02*X90750Y135500D01*
X92250D01*
X93000Y134750D01*
X95550D02*Y132500D01*
Y134750D02*X96300Y135500D01*
X97800D01*
X94800D02*X95550Y134750D01*
X99600Y137000D02*Y136250D01*
Y134750D02*Y132500D01*
X101100Y138500D02*Y133250D01*
X101850Y132500D01*
X103350Y138500D02*Y133250D01*
X104100Y132500D01*
X109050D02*X111300D01*
X112050Y133250D01*
X111300Y134000D02*X112050Y133250D01*
X109050Y134000D02*X111300D01*
X108300Y134750D02*X109050Y134000D01*
X108300Y134750D02*X109050Y135500D01*
X111300D01*
X112050Y134750D01*
X108300Y133250D02*X109050Y132500D01*
X113850Y137000D02*Y136250D01*
Y134750D02*Y132500D01*
X115350Y135500D02*X118350D01*
X115350Y132500D02*X118350Y135500D01*
X115350Y132500D02*X118350D01*
X120900D02*X123150D01*
X120150Y133250D02*X120900Y132500D01*
X120150Y134750D02*Y133250D01*
Y134750D02*X120900Y135500D01*
X122400D01*
X123150Y134750D01*
X120150Y134000D02*X123150D01*
Y134750D02*Y134000D01*
X125700Y132500D02*X127950D01*
X128700Y133250D01*
X127950Y134000D02*X128700Y133250D01*
X125700Y134000D02*X127950D01*
X124950Y134750D02*X125700Y134000D01*
X124950Y134750D02*X125700Y135500D01*
X127950D01*
X128700Y134750D01*
X124950Y133250D02*X125700Y132500D01*
X133200Y135500D02*Y133250D01*
X133950Y132500D01*
X135450D01*
X136200Y133250D01*
Y135500D02*Y133250D01*
X138750Y132500D02*X141000D01*
X141750Y133250D01*
X141000Y134000D02*X141750Y133250D01*
X138750Y134000D02*X141000D01*
X138000Y134750D02*X138750Y134000D01*
X138000Y134750D02*X138750Y135500D01*
X141000D01*
X141750Y134750D01*
X138000Y133250D02*X138750Y132500D01*
X144300D02*X146550D01*
X143550Y133250D02*X144300Y132500D01*
X143550Y134750D02*Y133250D01*
Y134750D02*X144300Y135500D01*
X145800D01*
X146550Y134750D01*
X143550Y134000D02*X146550D01*
Y134750D02*Y134000D01*
X151350Y138500D02*Y132500D01*
X150600D02*X151350Y133250D01*
X149100Y132500D02*X150600D01*
X148350Y133250D02*X149100Y132500D01*
X148350Y134750D02*Y133250D01*
Y134750D02*X149100Y135500D01*
X150600D01*
X151350Y134750D01*
X155850Y137000D02*Y136250D01*
Y134750D02*Y132500D01*
X158100Y134750D02*Y132500D01*
Y134750D02*X158850Y135500D01*
X159600D01*
X160350Y134750D01*
Y132500D01*
X157350Y135500D02*X158100Y134750D01*
X165600Y138500D02*Y133250D01*
X166350Y132500D01*
X164850Y136250D02*X166350D01*
X167850Y138500D02*Y132500D01*
Y134750D02*X168600Y135500D01*
X170100D01*
X170850Y134750D01*
Y132500D01*
X172650Y137000D02*Y136250D01*
Y134750D02*Y132500D01*
X174900D02*X177150D01*
X177900Y133250D01*
X177150Y134000D02*X177900Y133250D01*
X174900Y134000D02*X177150D01*
X174150Y134750D02*X174900Y134000D01*
X174150Y134750D02*X174900Y135500D01*
X177150D01*
X177900Y134750D01*
X174150Y133250D02*X174900Y132500D01*
X182400Y138500D02*Y133250D01*
X183150Y132500D01*
X186900Y135500D02*X187650Y134750D01*
X185400Y135500D02*X186900D01*
X184650Y134750D02*X185400Y135500D01*
X184650Y134750D02*Y133250D01*
X185400Y132500D01*
X187650Y135500D02*Y133250D01*
X188400Y132500D01*
X185400D02*X186900D01*
X187650Y133250D01*
X190200Y135500D02*Y133250D01*
X190950Y132500D01*
X193200Y135500D02*Y131000D01*
X192450Y130250D02*X193200Y131000D01*
X190950Y130250D02*X192450D01*
X190200Y131000D02*X190950Y130250D01*
Y132500D02*X192450D01*
X193200Y133250D01*
X195000Y134750D02*Y133250D01*
Y134750D02*X195750Y135500D01*
X197250D01*
X198000Y134750D01*
Y133250D01*
X197250Y132500D02*X198000Y133250D01*
X195750Y132500D02*X197250D01*
X195000Y133250D02*X195750Y132500D01*
X199800Y135500D02*Y133250D01*
X200550Y132500D01*
X202050D01*
X202800Y133250D01*
Y135500D02*Y133250D01*
X205350Y138500D02*Y133250D01*
X206100Y132500D01*
X204600Y136250D02*X206100D01*
X207600Y131000D02*X209100Y132500D01*
X215850Y138500D02*X216600Y137750D01*
X214350Y138500D02*X215850D01*
X213600Y137750D02*X214350Y138500D01*
X213600Y137750D02*Y133250D01*
X214350Y132500D01*
X215850Y135500D02*X216600Y134750D01*
X213600Y135500D02*X215850D01*
X214350Y132500D02*X215850D01*
X216600Y133250D01*
Y134750D02*Y133250D01*
X221100Y138500D02*Y132500D01*
Y134750D02*X221850Y135500D01*
X223350D01*
X224100Y134750D01*
Y132500D01*
X225900Y134750D02*Y133250D01*
Y134750D02*X226650Y135500D01*
X228150D01*
X228900Y134750D01*
Y133250D01*
X228150Y132500D02*X228900Y133250D01*
X226650Y132500D02*X228150D01*
X225900Y133250D02*X226650Y132500D01*
X230700Y138500D02*Y133250D01*
X231450Y132500D01*
X233700D02*X235950D01*
X232950Y133250D02*X233700Y132500D01*
X232950Y134750D02*Y133250D01*
Y134750D02*X233700Y135500D01*
X235200D01*
X235950Y134750D01*
X232950Y134000D02*X235950D01*
Y134750D02*Y134000D01*
X238500Y132500D02*X240750D01*
X241500Y133250D01*
X240750Y134000D02*X241500Y133250D01*
X238500Y134000D02*X240750D01*
X237750Y134750D02*X238500Y134000D01*
X237750Y134750D02*X238500Y135500D01*
X240750D01*
X241500Y134750D01*
X237750Y133250D02*X238500Y132500D01*
X246750Y138500D02*Y133250D01*
X247500Y132500D01*
X246000Y136250D02*X247500D01*
X249000Y134750D02*Y133250D01*
Y134750D02*X249750Y135500D01*
X251250D01*
X252000Y134750D01*
Y133250D01*
X251250Y132500D02*X252000Y133250D01*
X249750Y132500D02*X251250D01*
X249000Y133250D02*X249750Y132500D01*
X254550Y138500D02*Y133250D01*
X255300Y132500D01*
X253800Y136250D02*X255300D01*
X259050Y135500D02*X259800Y134750D01*
X257550Y135500D02*X259050D01*
X256800Y134750D02*X257550Y135500D01*
X256800Y134750D02*Y133250D01*
X257550Y132500D01*
X259800Y135500D02*Y133250D01*
X260550Y132500D01*
X257550D02*X259050D01*
X259800Y133250D01*
X262350Y138500D02*Y133250D01*
X263100Y132500D01*
G54D43*X0Y50000D02*X50000D01*
Y0D01*
X0D01*
Y50000D01*
G54D42*Y-9500D02*X3000D01*
X3750Y-8750D01*
Y-7250D02*Y-8750D01*
X3000Y-6500D02*X3750Y-7250D01*
X750Y-6500D02*X3000D01*
X750Y-3500D02*Y-9500D01*
X0Y-3500D02*X3000D01*
X3750Y-4250D01*
Y-5750D01*
X3000Y-6500D02*X3750Y-5750D01*
X5550Y-7250D02*Y-8750D01*
Y-7250D02*X6300Y-6500D01*
X7800D01*
X8550Y-7250D01*
Y-8750D01*
X7800Y-9500D02*X8550Y-8750D01*
X6300Y-9500D02*X7800D01*
X5550Y-8750D02*X6300Y-9500D01*
X12600Y-6500D02*X13350Y-7250D01*
X11100Y-6500D02*X12600D01*
X10350Y-7250D02*X11100Y-6500D01*
X10350Y-7250D02*Y-8750D01*
X11100Y-9500D01*
X13350Y-6500D02*Y-8750D01*
X14100Y-9500D01*
X11100D02*X12600D01*
X13350Y-8750D01*
X16650Y-7250D02*Y-9500D01*
Y-7250D02*X17400Y-6500D01*
X18900D01*
X15900D02*X16650Y-7250D01*
X23700Y-3500D02*Y-9500D01*
X22950D02*X23700Y-8750D01*
X21450Y-9500D02*X22950D01*
X20700Y-8750D02*X21450Y-9500D01*
X20700Y-7250D02*Y-8750D01*
Y-7250D02*X21450Y-6500D01*
X22950D01*
X23700Y-7250D01*
X28200D02*Y-8750D01*
Y-7250D02*X28950Y-6500D01*
X30450D01*
X31200Y-7250D01*
Y-8750D01*
X30450Y-9500D02*X31200Y-8750D01*
X28950Y-9500D02*X30450D01*
X28200Y-8750D02*X28950Y-9500D01*
X33000Y-6500D02*Y-8750D01*
X33750Y-9500D01*
X35250D01*
X36000Y-8750D01*
Y-6500D02*Y-8750D01*
X38550Y-3500D02*Y-8750D01*
X39300Y-9500D01*
X37800Y-5750D02*X39300D01*
X40800Y-3500D02*Y-8750D01*
X41550Y-9500D01*
X43050Y-5000D02*Y-5750D01*
Y-7250D02*Y-9500D01*
X45300Y-7250D02*Y-9500D01*
Y-7250D02*X46050Y-6500D01*
X46800D01*
X47550Y-7250D01*
Y-9500D01*
X44550Y-6500D02*X45300Y-7250D01*
X50100Y-9500D02*X52350D01*
X49350Y-8750D02*X50100Y-9500D01*
X49350Y-7250D02*Y-8750D01*
Y-7250D02*X50100Y-6500D01*
X51600D01*
X52350Y-7250D01*
X49350Y-8000D02*X52350D01*
Y-7250D02*Y-8000D01*
X56850Y-5000D02*Y-5750D01*
Y-7250D02*Y-9500D01*
X59100D02*X61350D01*
X62100Y-8750D01*
X61350Y-8000D02*X62100Y-8750D01*
X59100Y-8000D02*X61350D01*
X58350Y-7250D02*X59100Y-8000D01*
X58350Y-7250D02*X59100Y-6500D01*
X61350D01*
X62100Y-7250D01*
X58350Y-8750D02*X59100Y-9500D01*
X67350Y-3500D02*Y-8750D01*
X68100Y-9500D01*
X66600Y-5750D02*X68100D01*
X69600Y-3500D02*Y-9500D01*
Y-7250D02*X70350Y-6500D01*
X71850D01*
X72600Y-7250D01*
Y-9500D01*
X75150D02*X77400D01*
X74400Y-8750D02*X75150Y-9500D01*
X74400Y-7250D02*Y-8750D01*
Y-7250D02*X75150Y-6500D01*
X76650D01*
X77400Y-7250D01*
X74400Y-8000D02*X77400D01*
Y-7250D02*Y-8000D01*
X82650Y-6500D02*X84900D01*
X81900Y-7250D02*X82650Y-6500D01*
X81900Y-7250D02*Y-8750D01*
X82650Y-9500D01*
X84900D01*
X87450D02*X89700D01*
X86700Y-8750D02*X87450Y-9500D01*
X86700Y-7250D02*Y-8750D01*
Y-7250D02*X87450Y-6500D01*
X88950D01*
X89700Y-7250D01*
X86700Y-8000D02*X89700D01*
Y-7250D02*Y-8000D01*
X92250Y-7250D02*Y-9500D01*
Y-7250D02*X93000Y-6500D01*
X93750D01*
X94500Y-7250D01*
Y-9500D01*
X91500Y-6500D02*X92250Y-7250D01*
X97050Y-3500D02*Y-8750D01*
X97800Y-9500D01*
X96300Y-5750D02*X97800D01*
X100050Y-9500D02*X102300D01*
X99300Y-8750D02*X100050Y-9500D01*
X99300Y-7250D02*Y-8750D01*
Y-7250D02*X100050Y-6500D01*
X101550D01*
X102300Y-7250D01*
X99300Y-8000D02*X102300D01*
Y-7250D02*Y-8000D01*
X104850Y-7250D02*Y-9500D01*
Y-7250D02*X105600Y-6500D01*
X107100D01*
X104100D02*X104850Y-7250D01*
X108900Y-3500D02*Y-8750D01*
X109650Y-9500D01*
X111150Y-5000D02*Y-5750D01*
Y-7250D02*Y-9500D01*
X113400Y-7250D02*Y-9500D01*
Y-7250D02*X114150Y-6500D01*
X114900D01*
X115650Y-7250D01*
Y-9500D01*
X112650Y-6500D02*X113400Y-7250D01*
X118200Y-9500D02*X120450D01*
X117450Y-8750D02*X118200Y-9500D01*
X117450Y-7250D02*Y-8750D01*
Y-7250D02*X118200Y-6500D01*
X119700D01*
X120450Y-7250D01*
X117450Y-8000D02*X120450D01*
Y-7250D02*Y-8000D01*
X124950Y-7250D02*Y-8750D01*
Y-7250D02*X125700Y-6500D01*
X127200D01*
X127950Y-7250D01*
Y-8750D01*
X127200Y-9500D02*X127950Y-8750D01*
X125700Y-9500D02*X127200D01*
X124950Y-8750D02*X125700Y-9500D01*
X130500Y-4250D02*Y-9500D01*
Y-4250D02*X131250Y-3500D01*
X132000D01*
X129750Y-6500D02*X131250D01*
X136950Y-3500D02*Y-8750D01*
X137700Y-9500D01*
X136200Y-5750D02*X137700D01*
X139200Y-3500D02*Y-9500D01*
Y-7250D02*X139950Y-6500D01*
X141450D01*
X142200Y-7250D01*
Y-9500D01*
X144000Y-5000D02*Y-5750D01*
Y-7250D02*Y-9500D01*
X146250D02*X148500D01*
X149250Y-8750D01*
X148500Y-8000D02*X149250Y-8750D01*
X146250Y-8000D02*X148500D01*
X145500Y-7250D02*X146250Y-8000D01*
X145500Y-7250D02*X146250Y-6500D01*
X148500D01*
X149250Y-7250D01*
X145500Y-8750D02*X146250Y-9500D01*
X154500Y-7250D02*Y-11750D01*
X153750Y-6500D02*X154500Y-7250D01*
X155250Y-6500D01*
X156750D01*
X157500Y-7250D01*
Y-8750D01*
X156750Y-9500D02*X157500Y-8750D01*
X155250Y-9500D02*X156750D01*
X154500Y-8750D02*X155250Y-9500D01*
X161550Y-6500D02*X162300Y-7250D01*
X160050Y-6500D02*X161550D01*
X159300Y-7250D02*X160050Y-6500D01*
X159300Y-7250D02*Y-8750D01*
X160050Y-9500D01*
X162300Y-6500D02*Y-8750D01*
X163050Y-9500D01*
X160050D02*X161550D01*
X162300Y-8750D01*
X165600Y-3500D02*Y-8750D01*
X166350Y-9500D01*
X164850Y-5750D02*X166350D01*
X167850Y-3500D02*Y-9500D01*
Y-7250D02*X168600Y-6500D01*
X170100D01*
X170850Y-7250D01*
Y-9500D01*
X200750Y78500D02*Y72500D01*
X203000Y78500D02*X203750Y77750D01*
Y73250D01*
X203000Y72500D02*X203750Y73250D01*
X200000Y72500D02*X203000D01*
X200000Y78500D02*X203000D01*
X207800Y75500D02*X208550Y74750D01*
X206300Y75500D02*X207800D01*
X205550Y74750D02*X206300Y75500D01*
X205550Y74750D02*Y73250D01*
X206300Y72500D01*
X208550Y75500D02*Y73250D01*
X209300Y72500D01*
X206300D02*X207800D01*
X208550Y73250D01*
X211850Y78500D02*Y73250D01*
X212600Y72500D01*
X211100Y76250D02*X212600D01*
X214850Y72500D02*X217100D01*
X214100Y73250D02*X214850Y72500D01*
X214100Y74750D02*Y73250D01*
Y74750D02*X214850Y75500D01*
X216350D01*
X217100Y74750D01*
X214100Y74000D02*X217100D01*
Y74750D02*Y74000D01*
X218900Y76250D02*X219650D01*
X218900Y74750D02*X219650D01*
X224150Y78500D02*Y72500D01*
Y78500D02*X226400Y76250D01*
X228650Y78500D01*
Y72500D01*
X230450Y74750D02*Y73250D01*
Y74750D02*X231200Y75500D01*
X232700D01*
X233450Y74750D01*
Y73250D01*
X232700Y72500D02*X233450Y73250D01*
X231200Y72500D02*X232700D01*
X230450Y73250D02*X231200Y72500D01*
X236000Y74750D02*Y72500D01*
Y74750D02*X236750Y75500D01*
X237500D01*
X238250Y74750D01*
Y72500D01*
X235250Y75500D02*X236000Y74750D01*
X242750Y77750D02*X243500Y78500D01*
X245750D01*
X246500Y77750D01*
Y76250D01*
X242750Y72500D02*X246500Y76250D01*
X242750Y72500D02*X246500D01*
X249050D02*X250550D01*
X249800Y78500D02*Y72500D01*
X248300Y77000D02*X249800Y78500D01*
X255050Y77750D02*Y72500D01*
Y77750D02*X255800Y78500D01*
X258050D01*
X258800Y77750D01*
Y72500D01*
X255050Y75500D02*X258800D01*
X261350Y74750D02*Y70250D01*
X260600Y75500D02*X261350Y74750D01*
X262100Y75500D01*
X263600D01*
X264350Y74750D01*
Y73250D01*
X263600Y72500D02*X264350Y73250D01*
X262100Y72500D02*X263600D01*
X261350Y73250D02*X262100Y72500D01*
X266900Y74750D02*Y72500D01*
Y74750D02*X267650Y75500D01*
X269150D01*
X266150D02*X266900Y74750D01*
X273650Y77750D02*X274400Y78500D01*
X276650D01*
X277400Y77750D01*
Y76250D01*
X273650Y72500D02*X277400Y76250D01*
X273650Y72500D02*X277400D01*
X279200Y73250D02*X279950Y72500D01*
X279200Y77750D02*Y73250D01*
Y77750D02*X279950Y78500D01*
X281450D01*
X282200Y77750D01*
Y73250D01*
X281450Y72500D02*X282200Y73250D01*
X279950Y72500D02*X281450D01*
X279200Y74000D02*X282200Y77000D01*
X284750Y72500D02*X286250D01*
X285500Y78500D02*Y72500D01*
X284000Y77000D02*X285500Y78500D01*
X288050Y75500D02*X291050Y78500D01*
X288050Y75500D02*X291800D01*
X291050Y78500D02*Y72500D01*
X296300Y73250D02*X297050Y72500D01*
X296300Y77750D02*Y73250D01*
Y77750D02*X297050Y78500D01*
X298550D01*
X299300Y77750D01*
Y73250D01*
X298550Y72500D02*X299300Y73250D01*
X297050Y72500D02*X298550D01*
X296300Y74000D02*X299300Y77000D01*
X301100Y77750D02*X301850Y78500D01*
X303350D01*
X304100Y77750D01*
Y73250D01*
X303350Y72500D02*X304100Y73250D01*
X301850Y72500D02*X303350D01*
X301100Y73250D02*X301850Y72500D01*
Y75500D02*X304100D01*
X305900Y76250D02*X306650D01*
X305900Y74750D02*X306650D01*
X308450Y75500D02*X311450Y78500D01*
X308450Y75500D02*X312200D01*
X311450Y78500D02*Y72500D01*
X314000Y75500D02*X317000Y78500D01*
X314000Y75500D02*X317750D01*
X317000Y78500D02*Y72500D01*
X319550Y76250D02*X320300D01*
X319550Y74750D02*X320300D01*
X322100Y73250D02*X322850Y72500D01*
X322100Y77750D02*Y73250D01*
Y77750D02*X322850Y78500D01*
X324350D01*
X325100Y77750D01*
Y73250D01*
X324350Y72500D02*X325100Y73250D01*
X322850Y72500D02*X324350D01*
X322100Y74000D02*X325100Y77000D01*
X327650Y72500D02*X329150D01*
X328400Y78500D02*Y72500D01*
X326900Y77000D02*X328400Y78500D01*
X333650Y77750D02*Y72500D01*
Y77750D02*X334400Y78500D01*
X336650D01*
X337400Y77750D01*
Y72500D01*
X333650Y75500D02*X337400D01*
X339200Y78500D02*Y72500D01*
Y78500D02*X341450Y76250D01*
X343700Y78500D01*
Y72500D01*
X351200Y78500D02*X351950Y77750D01*
X348950Y78500D02*X351200D01*
X348200Y77750D02*X348950Y78500D01*
X348200Y77750D02*Y73250D01*
X348950Y72500D01*
X351200D01*
X351950Y73250D01*
Y74750D02*Y73250D01*
X351200Y75500D02*X351950Y74750D01*
X349700Y75500D02*X351200D01*
X353750Y78500D02*Y72500D01*
Y78500D02*X356000Y76250D01*
X358250Y78500D01*
Y72500D01*
X360050Y78500D02*X363050D01*
X361550D02*Y72500D01*
X367550Y78500D02*Y73250D01*
X368300Y72500D01*
X369800D01*
X370550Y73250D01*
Y78500D02*Y73250D01*
X372350Y78500D02*X375350D01*
X373850D02*Y72500D01*
X377900D02*X380150D01*
X377150Y73250D02*X377900Y72500D01*
X377150Y77750D02*Y73250D01*
Y77750D02*X377900Y78500D01*
X380150D01*
X200000Y92750D02*Y87500D01*
Y92750D02*X200750Y93500D01*
X203000D01*
X203750Y92750D01*
Y87500D01*
X200000Y90500D02*X203750D01*
X205550D02*Y88250D01*
X206300Y87500D01*
X207800D01*
X208550Y88250D01*
Y90500D02*Y88250D01*
X211100Y93500D02*Y88250D01*
X211850Y87500D01*
X210350Y91250D02*X211850D01*
X213350Y93500D02*Y87500D01*
Y89750D02*X214100Y90500D01*
X215600D01*
X216350Y89750D01*
Y87500D01*
X218150Y89750D02*Y88250D01*
Y89750D02*X218900Y90500D01*
X220400D01*
X221150Y89750D01*
Y88250D01*
X220400Y87500D02*X221150Y88250D01*
X218900Y87500D02*X220400D01*
X218150Y88250D02*X218900Y87500D01*
X223700Y89750D02*Y87500D01*
Y89750D02*X224450Y90500D01*
X225950D01*
X222950D02*X223700Y89750D01*
X227750Y91250D02*X228500D01*
X227750Y89750D02*X228500D01*
X233000Y93500D02*Y87500D01*
Y93500D02*X235250Y91250D01*
X237500Y93500D01*
Y87500D01*
X239300Y92000D02*Y91250D01*
Y89750D02*Y87500D01*
X241550Y90500D02*X243800D01*
X240800Y89750D02*X241550Y90500D01*
X240800Y89750D02*Y88250D01*
X241550Y87500D01*
X243800D01*
X245600Y93500D02*Y87500D01*
Y89750D02*X246350Y90500D01*
X247850D01*
X248600Y89750D01*
Y87500D01*
X252650Y90500D02*X253400Y89750D01*
X251150Y90500D02*X252650D01*
X250400Y89750D02*X251150Y90500D01*
X250400Y89750D02*Y88250D01*
X251150Y87500D01*
X253400Y90500D02*Y88250D01*
X254150Y87500D01*
X251150D02*X252650D01*
X253400Y88250D01*
X256700Y87500D02*X258950D01*
X255950Y88250D02*X256700Y87500D01*
X255950Y89750D02*Y88250D01*
Y89750D02*X256700Y90500D01*
X258200D01*
X258950Y89750D01*
X255950Y89000D02*X258950D01*
Y89750D02*Y89000D01*
X260750Y93500D02*Y88250D01*
X261500Y87500D01*
X266450Y93500D02*Y87500D01*
X265700Y93500D02*X268700D01*
X269450Y92750D01*
Y91250D01*
X268700Y90500D02*X269450Y91250D01*
X266450Y90500D02*X268700D01*
X272000Y87500D02*X274250D01*
X271250Y88250D02*X272000Y87500D01*
X271250Y89750D02*Y88250D01*
Y89750D02*X272000Y90500D01*
X273500D01*
X274250Y89750D01*
X271250Y89000D02*X274250D01*
Y89750D02*Y89000D01*
X276800Y93500D02*Y88250D01*
X277550Y87500D01*
X276050Y91250D02*X277550D01*
X279800Y87500D02*X282050D01*
X279050Y88250D02*X279800Y87500D01*
X279050Y89750D02*Y88250D01*
Y89750D02*X279800Y90500D01*
X281300D01*
X282050Y89750D01*
X279050Y89000D02*X282050D01*
Y89750D02*Y89000D01*
X284600Y89750D02*Y87500D01*
Y89750D02*X285350Y90500D01*
X286850D01*
X283850D02*X284600Y89750D01*
X289400Y87500D02*X291650D01*
X292400Y88250D01*
X291650Y89000D02*X292400Y88250D01*
X289400Y89000D02*X291650D01*
X288650Y89750D02*X289400Y89000D01*
X288650Y89750D02*X289400Y90500D01*
X291650D01*
X292400Y89750D01*
X288650Y88250D02*X289400Y87500D01*
X294950D02*X297200D01*
X294200Y88250D02*X294950Y87500D01*
X294200Y89750D02*Y88250D01*
Y89750D02*X294950Y90500D01*
X296450D01*
X297200Y89750D01*
X294200Y89000D02*X297200D01*
Y89750D02*Y89000D01*
X299750Y89750D02*Y87500D01*
Y89750D02*X300500Y90500D01*
X301250D01*
X302000Y89750D01*
Y87500D01*
X299000Y90500D02*X299750Y89750D01*
X200000Y108500D02*X203000D01*
X201500D02*Y102500D01*
X204800Y107000D02*Y106250D01*
Y104750D02*Y102500D01*
X207050Y108500D02*Y103250D01*
X207800Y102500D01*
X206300Y106250D02*X207800D01*
X209300Y108500D02*Y103250D01*
X210050Y102500D01*
X212300D02*X214550D01*
X211550Y103250D02*X212300Y102500D01*
X211550Y104750D02*Y103250D01*
Y104750D02*X212300Y105500D01*
X213800D01*
X214550Y104750D01*
X211550Y104000D02*X214550D01*
Y104750D02*Y104000D01*
X216350Y106250D02*X217100D01*
X216350Y104750D02*X217100D01*
X221600Y103250D02*X222350Y102500D01*
X221600Y107750D02*X222350Y108500D01*
X221600Y107750D02*Y103250D01*
X224150Y105500D02*Y103250D01*
X224900Y102500D01*
X226400D01*
X227150Y103250D01*
Y105500D02*Y103250D01*
X229700Y104750D02*Y102500D01*
Y104750D02*X230450Y105500D01*
X231200D01*
X231950Y104750D01*
Y102500D01*
X228950Y105500D02*X229700Y104750D01*
X233750Y108500D02*Y102500D01*
Y104750D02*X236000Y102500D01*
X233750Y104750D02*X235250Y106250D01*
X238550Y104750D02*Y102500D01*
Y104750D02*X239300Y105500D01*
X240050D01*
X240800Y104750D01*
Y102500D01*
X237800Y105500D02*X238550Y104750D01*
X242600D02*Y103250D01*
Y104750D02*X243350Y105500D01*
X244850D01*
X245600Y104750D01*
Y103250D01*
X244850Y102500D02*X245600Y103250D01*
X243350Y102500D02*X244850D01*
X242600Y103250D02*X243350Y102500D01*
X247400Y105500D02*Y103250D01*
X248150Y102500D01*
X248900D01*
X249650Y103250D01*
Y105500D02*Y103250D01*
X250400Y102500D01*
X251150D01*
X251900Y103250D01*
Y105500D02*Y103250D01*
X254450Y104750D02*Y102500D01*
Y104750D02*X255200Y105500D01*
X255950D01*
X256700Y104750D01*
Y102500D01*
X253700Y105500D02*X254450Y104750D01*
X258500Y108500D02*X259250Y107750D01*
Y103250D01*
X258500Y102500D02*X259250Y103250D01*
X263750Y105500D02*X266750D01*
X271250Y108500D02*Y102500D01*
Y108500D02*X274250D01*
X271250Y105500D02*X273500D01*
X278300D02*X279050Y104750D01*
X276800Y105500D02*X278300D01*
X276050Y104750D02*X276800Y105500D01*
X276050Y104750D02*Y103250D01*
X276800Y102500D01*
X279050Y105500D02*Y103250D01*
X279800Y102500D01*
X276800D02*X278300D01*
X279050Y103250D01*
X281600Y108500D02*Y102500D01*
Y103250D02*X282350Y102500D01*
X283850D01*
X284600Y103250D01*
Y104750D02*Y103250D01*
X283850Y105500D02*X284600Y104750D01*
X282350Y105500D02*X283850D01*
X281600Y104750D02*X282350Y105500D01*
X287150Y104750D02*Y102500D01*
Y104750D02*X287900Y105500D01*
X289400D01*
X286400D02*X287150Y104750D01*
X291200Y107000D02*Y106250D01*
Y104750D02*Y102500D01*
X293450Y105500D02*X295700D01*
X292700Y104750D02*X293450Y105500D01*
X292700Y104750D02*Y103250D01*
X293450Y102500D01*
X295700D01*
X299750Y105500D02*X300500Y104750D01*
X298250Y105500D02*X299750D01*
X297500Y104750D02*X298250Y105500D01*
X297500Y104750D02*Y103250D01*
X298250Y102500D01*
X300500Y105500D02*Y103250D01*
X301250Y102500D01*
X298250D02*X299750D01*
X300500Y103250D01*
X303800Y108500D02*Y103250D01*
X304550Y102500D01*
X303050Y106250D02*X304550D01*
X306050Y107000D02*Y106250D01*
Y104750D02*Y102500D01*
X307550Y104750D02*Y103250D01*
Y104750D02*X308300Y105500D01*
X309800D01*
X310550Y104750D01*
Y103250D01*
X309800Y102500D02*X310550Y103250D01*
X308300Y102500D02*X309800D01*
X307550Y103250D02*X308300Y102500D01*
X313100Y104750D02*Y102500D01*
Y104750D02*X313850Y105500D01*
X314600D01*
X315350Y104750D01*
Y102500D01*
X312350Y105500D02*X313100Y104750D01*
X320600Y108500D02*Y102500D01*
X322850Y108500D02*X323600Y107750D01*
Y103250D01*
X322850Y102500D02*X323600Y103250D01*
X319850Y102500D02*X322850D01*
X319850Y108500D02*X322850D01*
X326150Y104750D02*Y102500D01*
Y104750D02*X326900Y105500D01*
X328400D01*
X325400D02*X326150Y104750D01*
X332450Y105500D02*X333200Y104750D01*
X330950Y105500D02*X332450D01*
X330200Y104750D02*X330950Y105500D01*
X330200Y104750D02*Y103250D01*
X330950Y102500D01*
X333200Y105500D02*Y103250D01*
X333950Y102500D01*
X330950D02*X332450D01*
X333200Y103250D01*
X335750Y105500D02*Y103250D01*
X336500Y102500D01*
X337250D01*
X338000Y103250D01*
Y105500D02*Y103250D01*
X338750Y102500D01*
X339500D01*
X340250Y103250D01*
Y105500D02*Y103250D01*
X342050Y107000D02*Y106250D01*
Y104750D02*Y102500D01*
X344300Y104750D02*Y102500D01*
Y104750D02*X345050Y105500D01*
X345800D01*
X346550Y104750D01*
Y102500D01*
X343550Y105500D02*X344300Y104750D01*
X350600Y105500D02*X351350Y104750D01*
X349100Y105500D02*X350600D01*
X348350Y104750D02*X349100Y105500D01*
X348350Y104750D02*Y103250D01*
X349100Y102500D01*
X350600D01*
X351350Y103250D01*
X348350Y101000D02*X349100Y100250D01*
X350600D01*
X351350Y101000D01*
Y105500D02*Y101000D01*
M02*
